<svg xmlns="http://www.w3.org/2000/svg" xmlns:xlink="http://www.w3.org/1999/xlink" width="97.869" height="129.51" viewBox="0 0 97.869 129.51">
  <defs>
    <linearGradient id="linear-gradient" x1="0.5" y1="-0.008" x2="0.5" y2="0.992" gradientUnits="objectBoundingBox">
      <stop offset="0" stop-color="#f12711"/>
      <stop offset="1" stop-color="#f5aa19"/>
    </linearGradient>
    <clipPath id="clip-path">
      <rect id="Rectangle_20" data-name="Rectangle 20" width="18" height="6" transform="translate(562 438)" fill="none"/>
    </clipPath>
    <clipPath id="clip-path-2">
      <rect id="Rectangle_21" data-name="Rectangle 21" width="18" height="6" transform="translate(579 438)" fill="none"/>
    </clipPath>
    <clipPath id="clip-path-3">
      <rect id="Rectangle_22" data-name="Rectangle 22" width="18" height="6" transform="translate(595 438)" fill="none"/>
    </clipPath>
    <clipPath id="clip-path-4">
      <rect id="Rectangle_23" data-name="Rectangle 23" width="18" height="64" transform="translate(562 380)" fill="none"/>
    </clipPath>
    <clipPath id="clip-path-5">
      <rect id="Rectangle_24" data-name="Rectangle 24" width="18" height="64" transform="translate(579 380)" fill="none"/>
    </clipPath>
    <clipPath id="clip-path-6">
      <rect id="Rectangle_25" data-name="Rectangle 25" width="18" height="64" transform="translate(595 380)" fill="none"/>
    </clipPath>
  </defs>
  <g id="Group_9" data-name="Group 9" transform="translate(-539.065 -320.49)">
    <rect id="Rectangle_1" data-name="Rectangle 1" width="97.869" height="97.869" rx="15" transform="translate(539.065 320.49)" fill="url(#linear-gradient)"/>
    <path id="Path_7" data-name="Path 7" d="M56.667,66.045H48.138a3.013,3.013,0,0,1-3.009-3.061V45.558l3.282-2.728V62.763h6.307l2.72-5.122,2.9,1.547Z" transform="translate(512.065 294.865)" fill="#fff"/>
    <path id="Path_8" data-name="Path 8" d="M96.79,77.071H84.517V73.789s.57,0,2.009-1.129a3.748,3.748,0,0,0,1.338-3.816,3.3,3.3,0,0,0-2.539-2.575c-4.138-.876-6.644,3.877-6.668,3.925L75.74,68.688c.149-.3,3.688-7,10.147-5.652a6.648,6.648,0,0,1,5.158,5.082,7.03,7.03,0,0,1-1.117,5.672h6.5l.157-10.557,3.282-1.972-.277,13.69-.088.4a2.748,2.748,0,0,1-2.708,1.719Z" transform="translate(493.751 283.839)" fill="#fff"/>
    <path id="Path_9" data-name="Path 9" d="M16.788,95.2l-.048-4.6,4.716-5.17.036-4.688,3.282-2.772-.044,8.769Z" transform="translate(529.05 273.842)" fill="#fff"/>
    <path id="Path_10" data-name="Path 10" d="M185.5,82.04h-4.845a2.161,2.161,0,0,1-1.587-.643,3.689,3.689,0,0,1-.687-2.812V77.81a3.65,3.65,0,0,1,.739-2.744,2.242,2.242,0,0,1,1.607-.635h.036l5.222.052V72.6h-6.331l-1.073-2.844h7.773a2.523,2.523,0,0,1,2.519,2.507v6.4A3.378,3.378,0,0,1,185.5,82.04ZM181.215,79.2H185.5a.526.526,0,0,0,.526-.53V77.344l-4.792-.048v1.4C181.223,78.835,181.215,79.023,181.215,79.2Z" transform="translate(432.348 278.754)" fill="#fff"/>
    <path id="Path_11" data-name="Path 11" d="M215.128,79.339l-2.848,2.009V71.779A2.519,2.519,0,0,1,214.8,69.26h4.154L217.715,72.1h-2.587Z" transform="translate(412.061 279.053)" fill="#fff"/>
    <path id="Path_12" data-name="Path 12" d="M148.431,82.009H138.42l2.205-2.844h6.95l.024-1.976h-5.4a2.009,2.009,0,0,1-1.98-2.009l-.044-3.583a2.073,2.073,0,0,1,.59-1.47,1.944,1.944,0,0,1,1.39-.586h9.786l-1.667,2.844h-7.231l.028,1.96h5.419a1.928,1.928,0,0,1,1.37.6,2.065,2.065,0,0,1,.595,1.482l-.044,3.583A2.009,2.009,0,0,1,148.431,82.009Z" transform="translate(456.25 278.885)" fill="#fff"/>
    <path id="Path_13" data-name="Path 13" d="M78.3,71.846l-2.844-.008.048-5.395,2.756-2.053Z" transform="translate(493.918 281.966)" fill="#fff"/>
    <rect id="Rectangle_2" data-name="Rectangle 2" width="3.748" height="3.748" rx="1.874" transform="translate(591.95 337.701) rotate(45)" fill="#fff"/>
    <g id="Mask_Group_5" data-name="Mask Group 5" transform="translate(0 6)" clip-path="url(#clip-path)">
      <path id="Path_1" data-name="Path 1" d="M76.047,213.372l-4.937-6.729a9.067,9.067,0,0,1-.024-10.734l2.531-3.475a5.074,5.074,0,0,0,.522-5.074L69.1,176.19a9.119,9.119,0,0,1-.1-7.251L75.83,152.69l3.708,1.555L72.7,170.49a5.078,5.078,0,0,0,.056,4.045l5.058,11.184a9.107,9.107,0,0,1-.936,9.087l-2.535,3.479a5.058,5.058,0,0,0,0,5.99l4.933,6.721Z" transform="translate(498.204 229.137)" fill="#fff"/>
      <path id="Path_2" data-name="Path 2" d="M80.827,265.307l-3.238,2.378-4.937-6.729a9.059,9.059,0,0,1-.02-10.734l2.531-3.475a5.424,5.424,0,0,0,.45-.747l.185-.426a5.579,5.579,0,0,0,.325-2.1H80.14a9.022,9.022,0,0,1-.9,4.25,9.172,9.172,0,0,1-.836,1.39l-2.531,3.479a5.058,5.058,0,0,0,0,5.99Z" transform="translate(496.658 174.825)" fill="#c5374a"/>
    </g>
    <g id="Mask_Group_6" data-name="Mask Group 6" transform="translate(0 6)" clip-path="url(#clip-path-2)">
      <path id="Path_3" data-name="Path 3" d="M115.6,213.36l-4.937-6.729a9.067,9.067,0,0,1-.024-10.734l2.531-3.475a5.082,5.082,0,0,0,.526-5.074l-5.045-11.18a9.119,9.119,0,0,1-.1-7.251l6.829-16.249,3.7,1.555-6.829,16.249a5.078,5.078,0,0,0,.056,4.045l5.041,11.18a9.107,9.107,0,0,1-.936,9.087l-2.531,3.479a5.05,5.05,0,0,0,0,5.99l4.937,6.721Z" transform="translate(474.542 229.149)" fill="#fff"/>
      <path id="Path_4" data-name="Path 4" d="M120.4,265.307l-3.238,2.378-4.937-6.729a9.059,9.059,0,0,1,0-10.734l2.531-3.475a5.425,5.425,0,0,0,.45-.747l.185-.426a5.58,5.58,0,0,0,.325-2.1h4.017a9.023,9.023,0,0,1-.9,4.25,9.174,9.174,0,0,1-.836,1.39l-2.531,3.479a5.058,5.058,0,0,0,0,5.99Z" transform="translate(472.975 174.825)" fill="#c5374a"/>
    </g>
    <g id="Mask_Group_7" data-name="Mask Group 7" transform="translate(0 6)" clip-path="url(#clip-path-3)">
      <path id="Path_5" data-name="Path 5" d="M155.177,213.36l-4.937-6.729a9.067,9.067,0,0,1-.024-10.734l2.531-3.475a5.082,5.082,0,0,0,.546-5.074l-5.045-11.18a9.119,9.119,0,0,1-.1-7.251l6.829-16.249,3.7,1.555-6.829,16.249a5.078,5.078,0,0,0,.056,4.045l5.041,11.18a9.107,9.107,0,0,1-.936,9.087l-2.531,3.479a5.058,5.058,0,0,0,0,5.989l4.937,6.721Z" transform="translate(450.85 229.149)" fill="#fff"/>
      <path id="Path_6" data-name="Path 6" d="M159.937,265.307l-3.238,2.378-4.937-6.729a9.059,9.059,0,0,1-.02-10.734l2.531-3.475a5.425,5.425,0,0,0,.45-.747l.185-.426a5.58,5.58,0,0,0,.325-2.1h4.017a9.022,9.022,0,0,1-.9,4.25,9.173,9.173,0,0,1-.836,1.39l-2.531,3.479a5.057,5.057,0,0,0,0,5.99Z" transform="translate(449.327 174.825)" fill="#c5374a"/>
    </g>
    <g id="Mask_Group_8" data-name="Mask Group 8" clip-path="url(#clip-path-4)">
      <path id="Path_21" data-name="Path 21" d="M76.047,213.372l-4.937-6.729a9.067,9.067,0,0,1-.024-10.734l2.531-3.475a5.074,5.074,0,0,0,.522-5.074L69.1,176.19a9.119,9.119,0,0,1-.1-7.251L75.83,152.69l3.708,1.555L72.7,170.49a5.078,5.078,0,0,0,.056,4.045l5.058,11.184a9.107,9.107,0,0,1-.936,9.087l-2.535,3.479a5.058,5.058,0,0,0,0,5.99l4.933,6.721Z" transform="translate(498.204 229.137)" fill="#fff"/>
      <path id="Path_22" data-name="Path 22" d="M80.827,265.307l-3.238,2.378-4.937-6.729a9.059,9.059,0,0,1-.02-10.734l2.531-3.475a5.424,5.424,0,0,0,.45-.747l.185-.426a5.579,5.579,0,0,0,.325-2.1H80.14a9.022,9.022,0,0,1-.9,4.25,9.172,9.172,0,0,1-.836,1.39l-2.531,3.479a5.058,5.058,0,0,0,0,5.99Z" transform="translate(496.658 174.825)" fill="#c5374a"/>
    </g>
    <g id="Mask_Group_9" data-name="Mask Group 9" clip-path="url(#clip-path-5)">
      <path id="Path_23" data-name="Path 23" d="M115.6,213.36l-4.937-6.729a9.067,9.067,0,0,1-.024-10.734l2.531-3.475a5.082,5.082,0,0,0,.526-5.074l-5.045-11.18a9.119,9.119,0,0,1-.1-7.251l6.829-16.249,3.7,1.555-6.829,16.249a5.078,5.078,0,0,0,.056,4.045l5.041,11.18a9.107,9.107,0,0,1-.936,9.087l-2.531,3.479a5.05,5.05,0,0,0,0,5.99l4.937,6.721Z" transform="translate(474.542 229.149)" fill="#fff"/>
      <path id="Path_24" data-name="Path 24" d="M120.4,265.307l-3.238,2.378-4.937-6.729a9.059,9.059,0,0,1,0-10.734l2.531-3.475a5.425,5.425,0,0,0,.45-.747l.185-.426a5.58,5.58,0,0,0,.325-2.1h4.017a9.023,9.023,0,0,1-.9,4.25,9.174,9.174,0,0,1-.836,1.39l-2.531,3.479a5.058,5.058,0,0,0,0,5.99Z" transform="translate(472.975 174.825)" fill="#c5374a"/>
    </g>
    <g id="Mask_Group_10" data-name="Mask Group 10" clip-path="url(#clip-path-6)">
      <path id="Path_25" data-name="Path 25" d="M155.177,213.36l-4.937-6.729a9.067,9.067,0,0,1-.024-10.734l2.531-3.475a5.082,5.082,0,0,0,.546-5.074l-5.045-11.18a9.119,9.119,0,0,1-.1-7.251l6.829-16.249,3.7,1.555-6.829,16.249a5.078,5.078,0,0,0,.056,4.045l5.041,11.18a9.107,9.107,0,0,1-.936,9.087l-2.531,3.479a5.058,5.058,0,0,0,0,5.989l4.937,6.721Z" transform="translate(450.85 229.149)" fill="#fff"/>
      <path id="Path_26" data-name="Path 26" d="M159.937,265.307l-3.238,2.378-4.937-6.729a9.059,9.059,0,0,1-.02-10.734l2.531-3.475a5.425,5.425,0,0,0,.45-.747l.185-.426a5.58,5.58,0,0,0,.325-2.1h4.017a9.022,9.022,0,0,1-.9,4.25,9.173,9.173,0,0,1-.836,1.39l-2.531,3.479a5.057,5.057,0,0,0,0,5.99Z" transform="translate(449.327 174.825)" fill="#c5374a"/>
    </g>
  </g>
</svg>
