<svg xmlns="http://www.w3.org/2000/svg" width="83" height="30" viewBox="0 0 83 30">
  <g id="Group_1" data-name="Group 1" transform="translate(-1432.74 -47.83)">
    <path id="Path_14" data-name="Path 14" d="M56.454,65.617H48.083a2.957,2.957,0,0,1-2.953-3V45.507l3.222-2.677V62.4h6.191l2.669-5.027,2.851,1.518Z" transform="translate(1398.805 5)" fill="#fff"/>
    <path id="Path_15" data-name="Path 15" d="M96.4,76.016H84.356V72.953s.56,0,1.972-1.053a3.405,3.405,0,0,0,1.313-3.562,3.158,3.158,0,0,0-2.492-2.4c-4.061-.817-6.522,3.618-6.546,3.663L75.74,68.192c.146-.281,3.62-6.531,9.96-5.275a6.379,6.379,0,0,1,5.063,4.742,6.3,6.3,0,0,1-1.1,5.294h6.376L96.2,63.1l3.222-1.841-.272,12.777-.087.375A2.708,2.708,0,0,1,96.4,76.016Z" transform="translate(1380.011 -6.163)" fill="#fff"/>
    <path id="Path_16" data-name="Path 16" d="M16.787,94.878l-.047-4.511,4.629-5.075.035-4.6,3.222-2.721-.043,8.608Z" transform="translate(1416 -17.048)" fill="#fff"/>
    <path id="Path_17" data-name="Path 17" d="M185.37,81.814h-4.755a2.121,2.121,0,0,1-1.558-.631,3.621,3.621,0,0,1-.674-2.76v-.761a3.583,3.583,0,0,1,.726-2.693,2.2,2.2,0,0,1,1.577-.623h.036l5.126.051V72.552h-6.214L178.58,69.76h7.63a2.476,2.476,0,0,1,2.472,2.461V78.5a3.316,3.316,0,0,1-3.312,3.312Zm-4.207-2.792h4.207a.517.517,0,0,0,.517-.52V77.2l-4.7-.047V78.53C181.17,78.668,181.163,78.853,181.163,79.022Z" transform="translate(1317.448 -11.745)" fill="#fff"/>
    <path id="Path_18" data-name="Path 18" d="M215.076,79.153l-2.8,1.972V71.732a2.472,2.472,0,0,1,2.472-2.472h4.077l-1.214,2.792h-2.539Z" transform="translate(1296.91 -11.43)" fill="#fff"/>
    <path id="Path_19" data-name="Path 19" d="M148.246,81.779H138.42l2.165-2.792h6.822l.024-1.94h-5.3a1.972,1.972,0,0,1-1.944-1.972l-.043-3.517a2.035,2.035,0,0,1,.58-1.443,1.908,1.908,0,0,1,1.364-.576h9.605l-1.636,2.792h-7.1l.028,1.924h5.319a1.893,1.893,0,0,1,1.345.591,2.027,2.027,0,0,1,.584,1.455l-.043,3.517A1.972,1.972,0,0,1,148.246,81.779Z" transform="translate(1341.854 -11.612)" fill="#fff"/>
    <path id="Path_20" data-name="Path 20" d="M78.252,71.708,75.46,71.7l.047-5.3,2.7-2.015Z" transform="translate(1380.247 -8.336)" fill="#fff"/>
    <rect id="Rectangle_3" data-name="Rectangle 3" width="3.679" height="3.679" rx="1.839" transform="translate(1477.694 47.835) rotate(45)" fill="#fff"/>
  </g>
</svg>
